%TF.GenerationSoftware,KiCad,Pcbnew,(5.1.6)-1*%
%TF.CreationDate,2020-09-05T12:43:39-05:00*%
%TF.ProjectId,fuente-sin-transformador,6675656e-7465-42d7-9369-6e2d7472616e,rev?*%
%TF.SameCoordinates,Original*%
%TF.FileFunction,Soldermask,Bot*%
%TF.FilePolarity,Negative*%
%FSLAX46Y46*%
G04 Gerber Fmt 4.6, Leading zero omitted, Abs format (unit mm)*
G04 Created by KiCad (PCBNEW (5.1.6)-1) date 2020-09-05 12:43:39*
%MOMM*%
%LPD*%
G01*
G04 APERTURE LIST*
%ADD10C,0.250000*%
%ADD11C,0.010000*%
%ADD12C,5.700000*%
%ADD13O,1.700000X1.700000*%
%ADD14R,1.700000X1.700000*%
%ADD15O,2.500000X2.500000*%
%ADD16C,2.500000*%
%ADD17C,2.700000*%
%ADD18R,2.700000X2.700000*%
%ADD19O,2.300000X2.300000*%
%ADD20R,2.300000X2.300000*%
%ADD21C,1.700000*%
G04 APERTURE END LIST*
D10*
X152902008Y-94178571D02*
X152714508Y-92678571D01*
X152348437Y-93750000D01*
X151714508Y-92678571D01*
X151902008Y-94178571D01*
X151205580Y-93750000D02*
X150491294Y-93750000D01*
X151402008Y-94178571D02*
X150714508Y-92678571D01*
X150402008Y-94178571D01*
X149527008Y-93464285D02*
X149616294Y-94178571D01*
X149928794Y-92678571D02*
X149527008Y-93464285D01*
X148928794Y-92678571D01*
X148616294Y-94178571D02*
X148428794Y-92678571D01*
X147759151Y-94178571D02*
X148294866Y-93321428D01*
X147571651Y-92678571D02*
X148535937Y-93535714D01*
X146643080Y-92678571D02*
X146357366Y-92678571D01*
X146223437Y-92750000D01*
X146098437Y-92892857D01*
X146062723Y-93178571D01*
X146125223Y-93678571D01*
X146232366Y-93964285D01*
X146393080Y-94107142D01*
X146544866Y-94178571D01*
X146830580Y-94178571D01*
X146964508Y-94107142D01*
X147089508Y-93964285D01*
X147125223Y-93678571D01*
X147062723Y-93178571D01*
X146955580Y-92892857D01*
X146794866Y-92750000D01*
X146643080Y-92678571D01*
X144830580Y-94178571D02*
X145544866Y-94178571D01*
X145357366Y-92678571D01*
X143473437Y-94178571D02*
X143884151Y-93464285D01*
X144330580Y-94178571D02*
X144143080Y-92678571D01*
X143571651Y-92678571D01*
X143437723Y-92750000D01*
X143375223Y-92821428D01*
X143321651Y-92964285D01*
X143348437Y-93178571D01*
X143437723Y-93321428D01*
X143518080Y-93392857D01*
X143669866Y-93464285D01*
X144241294Y-93464285D01*
X142732366Y-93392857D02*
X142232366Y-93392857D01*
X142116294Y-94178571D02*
X142830580Y-94178571D01*
X142643080Y-92678571D01*
X141928794Y-92678571D01*
X141098437Y-93464285D02*
X141187723Y-94178571D01*
X141500223Y-92678571D02*
X141098437Y-93464285D01*
X140500223Y-92678571D01*
X140169866Y-94035714D02*
X140107366Y-94107142D01*
X140187723Y-94178571D01*
X140250223Y-94107142D01*
X140169866Y-94035714D01*
X140187723Y-94178571D01*
X138598437Y-94035714D02*
X138678794Y-94107142D01*
X138902008Y-94178571D01*
X139044866Y-94178571D01*
X139250223Y-94107142D01*
X139375223Y-93964285D01*
X139428794Y-93821428D01*
X139464508Y-93535714D01*
X139437723Y-93321428D01*
X139330580Y-93035714D01*
X139241294Y-92892857D01*
X139080580Y-92750000D01*
X138857366Y-92678571D01*
X138714508Y-92678571D01*
X138509151Y-92750000D01*
X138446651Y-92821428D01*
X137500223Y-92678571D02*
X137214508Y-92678571D01*
X137080580Y-92750000D01*
X136955580Y-92892857D01*
X136919866Y-93178571D01*
X136982366Y-93678571D01*
X137089508Y-93964285D01*
X137250223Y-94107142D01*
X137402008Y-94178571D01*
X137687723Y-94178571D01*
X137821651Y-94107142D01*
X137946651Y-93964285D01*
X137982366Y-93678571D01*
X137919866Y-93178571D01*
X137812723Y-92892857D01*
X137652008Y-92750000D01*
X137500223Y-92678571D01*
X136402008Y-94178571D02*
X136214508Y-92678571D01*
X135848437Y-93750000D01*
X135214508Y-92678571D01*
X135402008Y-94178571D01*
D11*
%TO.C,G\u002A\u002A\u002A*%
G36*
X140492493Y-86778455D02*
G01*
X140267608Y-86782416D01*
X140088603Y-86791026D01*
X139946675Y-86805927D01*
X139833021Y-86828763D01*
X139738840Y-86861176D01*
X139655327Y-86904809D01*
X139573680Y-86961305D01*
X139508011Y-87013405D01*
X139350031Y-87180554D01*
X139242832Y-87374409D01*
X139184996Y-87585516D01*
X139175103Y-87804425D01*
X139211734Y-88021684D01*
X139293470Y-88227841D01*
X139418890Y-88413445D01*
X139586577Y-88569043D01*
X139756552Y-88668500D01*
X139824375Y-88696982D01*
X139893351Y-88718323D01*
X139975222Y-88734102D01*
X140081729Y-88745896D01*
X140224616Y-88755284D01*
X140415624Y-88763844D01*
X140486124Y-88766565D01*
X140708181Y-88776169D01*
X140873463Y-88787157D01*
X140988693Y-88801389D01*
X141060594Y-88820725D01*
X141095888Y-88847025D01*
X141101299Y-88882150D01*
X141083550Y-88927960D01*
X141081742Y-88931376D01*
X141065461Y-88953904D01*
X141038123Y-88970635D01*
X140990544Y-88982714D01*
X140913544Y-88991289D01*
X140797942Y-88997504D01*
X140634555Y-89002505D01*
X140484227Y-89005954D01*
X140233287Y-89013990D01*
X140034942Y-89028276D01*
X139878350Y-89052220D01*
X139752668Y-89089228D01*
X139647056Y-89142708D01*
X139550671Y-89216065D01*
X139452671Y-89312706D01*
X139430035Y-89337193D01*
X139350981Y-89429035D01*
X139290097Y-89516692D01*
X139244938Y-89610350D01*
X139213058Y-89720196D01*
X139192012Y-89856416D01*
X139179354Y-90029195D01*
X139172640Y-90248721D01*
X139170327Y-90418984D01*
X139168876Y-90636455D01*
X139169843Y-90799779D01*
X139173861Y-90918287D01*
X139181564Y-91001308D01*
X139193586Y-91058170D01*
X139210558Y-91098203D01*
X139217178Y-91109042D01*
X139302207Y-91187889D01*
X139409843Y-91219160D01*
X139520686Y-91202897D01*
X139615335Y-91139144D01*
X139639434Y-91108110D01*
X139660067Y-91067739D01*
X139674300Y-91013155D01*
X139682967Y-90933760D01*
X139686900Y-90818956D01*
X139686931Y-90658145D01*
X139685268Y-90524837D01*
X139684556Y-90276886D01*
X139691704Y-90083672D01*
X139707907Y-89936783D01*
X139734362Y-89827808D01*
X139772265Y-89748335D01*
X139800941Y-89711376D01*
X139850712Y-89659082D01*
X139897253Y-89619865D01*
X139950521Y-89591555D01*
X140020469Y-89571985D01*
X140117055Y-89558987D01*
X140250233Y-89550394D01*
X140429959Y-89544037D01*
X140589080Y-89539750D01*
X141200752Y-89523875D01*
X141338314Y-89427215D01*
X141486087Y-89289535D01*
X141582431Y-89127899D01*
X141628756Y-88952707D01*
X141626478Y-88774359D01*
X141577007Y-88603254D01*
X141481758Y-88449791D01*
X141342144Y-88324370D01*
X141177450Y-88243277D01*
X141100804Y-88228656D01*
X140971054Y-88217210D01*
X140798541Y-88209558D01*
X140593610Y-88206317D01*
X140557830Y-88206250D01*
X140358790Y-88205302D01*
X140212005Y-88201747D01*
X140106246Y-88194518D01*
X140030286Y-88182548D01*
X139972897Y-88164769D01*
X139935505Y-88147096D01*
X139810103Y-88046053D01*
X139731571Y-87907039D01*
X139705925Y-87741137D01*
X139733317Y-87582918D01*
X139813137Y-87458100D01*
X139913913Y-87379352D01*
X139950432Y-87359776D01*
X139993246Y-87344800D01*
X140050871Y-87333814D01*
X140131828Y-87326208D01*
X140244633Y-87321371D01*
X140397806Y-87318693D01*
X140599865Y-87317564D01*
X140779145Y-87317368D01*
X141542914Y-87317250D01*
X141651364Y-87397262D01*
X141728032Y-87460947D01*
X141784021Y-87519955D01*
X141792470Y-87532199D01*
X141800970Y-87577991D01*
X141809095Y-87684194D01*
X141816745Y-87847716D01*
X141823821Y-88065471D01*
X141830226Y-88334367D01*
X141835858Y-88651316D01*
X141840621Y-89013228D01*
X141841000Y-89047625D01*
X141856875Y-90508125D01*
X141941025Y-90666875D01*
X142088418Y-90881372D01*
X142277543Y-91052636D01*
X142403891Y-91129224D01*
X142564232Y-91184306D01*
X142756512Y-91210115D01*
X142956577Y-91206451D01*
X143140274Y-91173111D01*
X143238000Y-91136154D01*
X143431744Y-91008493D01*
X143600622Y-90834471D01*
X143708873Y-90668704D01*
X143793625Y-90508125D01*
X143809500Y-89047625D01*
X143813276Y-88696722D01*
X143816784Y-88403620D01*
X143820742Y-88162624D01*
X143825870Y-87968042D01*
X143832886Y-87814182D01*
X143842508Y-87695350D01*
X143855456Y-87605853D01*
X143872448Y-87539999D01*
X143894202Y-87492096D01*
X143921437Y-87456449D01*
X143954872Y-87427367D01*
X143995226Y-87399157D01*
X144019681Y-87382601D01*
X144097112Y-87338719D01*
X144176734Y-87320691D01*
X144286756Y-87322699D01*
X144303598Y-87324031D01*
X144420863Y-87340593D01*
X144503089Y-87374193D01*
X144578519Y-87436577D01*
X144581621Y-87439664D01*
X144682625Y-87540617D01*
X144699792Y-88992621D01*
X144703995Y-89336177D01*
X144707955Y-89622239D01*
X144711973Y-89856813D01*
X144716350Y-90045901D01*
X144721386Y-90195510D01*
X144727384Y-90311642D01*
X144734644Y-90400302D01*
X144743467Y-90467494D01*
X144754154Y-90519224D01*
X144767007Y-90561494D01*
X144780146Y-90595156D01*
X144901828Y-90808443D01*
X145069909Y-90990992D01*
X145241349Y-91111632D01*
X145331907Y-91158259D01*
X145411090Y-91186597D01*
X145500318Y-91201095D01*
X145621009Y-91206202D01*
X145698625Y-91206625D01*
X145842845Y-91204492D01*
X145944991Y-91195150D01*
X146026431Y-91174184D01*
X146108530Y-91137180D01*
X146154410Y-91112445D01*
X146338482Y-90982625D01*
X146493694Y-90818743D01*
X146604646Y-90637846D01*
X146623021Y-90593676D01*
X146636490Y-90552210D01*
X146647860Y-90501575D01*
X146657404Y-90435840D01*
X146665396Y-90349073D01*
X146672111Y-90235341D01*
X146677822Y-90088713D01*
X146682804Y-89903257D01*
X146687330Y-89673041D01*
X146691675Y-89392132D01*
X146696111Y-89054600D01*
X146696843Y-88995339D01*
X146701132Y-88653884D01*
X146705066Y-88370235D01*
X146708950Y-88138702D01*
X146713087Y-87953595D01*
X146717783Y-87809224D01*
X146723340Y-87699898D01*
X146730063Y-87619927D01*
X146738257Y-87563622D01*
X146748225Y-87525291D01*
X146760271Y-87499245D01*
X146774700Y-87479793D01*
X146778051Y-87476026D01*
X146907612Y-87375161D01*
X147057673Y-87324844D01*
X147213828Y-87324203D01*
X147361669Y-87372363D01*
X147486793Y-87468452D01*
X147528173Y-87521487D01*
X147538980Y-87549177D01*
X147548287Y-87600645D01*
X147556287Y-87680849D01*
X147563175Y-87794747D01*
X147569145Y-87947297D01*
X147574388Y-88143458D01*
X147579100Y-88388188D01*
X147583474Y-88686445D01*
X147587702Y-89043187D01*
X147587750Y-89047625D01*
X147591546Y-89390243D01*
X147595032Y-89675312D01*
X147598531Y-89908779D01*
X147602367Y-90096593D01*
X147606862Y-90244702D01*
X147612341Y-90359051D01*
X147619126Y-90445591D01*
X147627541Y-90510268D01*
X147637909Y-90559030D01*
X147650553Y-90597824D01*
X147665797Y-90632599D01*
X147674906Y-90651164D01*
X147808386Y-90855201D01*
X147981743Y-91020964D01*
X148184248Y-91140933D01*
X148405169Y-91207590D01*
X148482016Y-91216733D01*
X148590438Y-91220992D01*
X148659569Y-91210008D01*
X148712967Y-91177629D01*
X148744413Y-91148224D01*
X148813546Y-91043014D01*
X148826451Y-90933297D01*
X148788200Y-90831129D01*
X148703869Y-90748561D01*
X148578531Y-90697648D01*
X148552741Y-90692888D01*
X148371908Y-90642121D01*
X148241631Y-90553665D01*
X148199237Y-90501000D01*
X148185924Y-90476185D01*
X148174732Y-90442047D01*
X148165394Y-90392883D01*
X148157643Y-90322990D01*
X148151212Y-90226664D01*
X148145835Y-90098203D01*
X148141242Y-89931904D01*
X148137168Y-89722064D01*
X148133346Y-89462981D01*
X148129507Y-89148950D01*
X148127500Y-88969723D01*
X148123659Y-88628430D01*
X148120089Y-88344623D01*
X148116473Y-88112291D01*
X148112492Y-87925421D01*
X148107829Y-87778002D01*
X148102163Y-87664023D01*
X148095177Y-87577471D01*
X148086552Y-87512337D01*
X148075970Y-87462607D01*
X148063112Y-87422271D01*
X148047660Y-87385317D01*
X148043017Y-87375172D01*
X147910307Y-87157785D01*
X147736930Y-86985523D01*
X147529481Y-86863039D01*
X147294559Y-86794988D01*
X147206296Y-86784837D01*
X146958326Y-86797316D01*
X146727641Y-86868022D01*
X146522758Y-86992384D01*
X146352196Y-87165830D01*
X146273262Y-87285500D01*
X146174875Y-87460125D01*
X146159000Y-88920625D01*
X146154423Y-89295385D01*
X146149426Y-89610335D01*
X146143876Y-89869165D01*
X146137643Y-90075564D01*
X146130592Y-90233222D01*
X146122593Y-90345827D01*
X146113511Y-90417069D01*
X146104154Y-90449137D01*
X146054519Y-90513675D01*
X145980825Y-90587616D01*
X145962797Y-90603302D01*
X145895838Y-90652808D01*
X145831713Y-90676226D01*
X145744763Y-90680092D01*
X145676766Y-90676169D01*
X145511819Y-90643538D01*
X145386875Y-90567911D01*
X145290898Y-90444625D01*
X145280876Y-90402811D01*
X145271892Y-90312299D01*
X145263863Y-90170742D01*
X145256709Y-89975796D01*
X145250349Y-89725114D01*
X145244701Y-89416350D01*
X145239684Y-89047159D01*
X145238250Y-88920625D01*
X145234448Y-88577926D01*
X145230948Y-88292824D01*
X145227433Y-88059418D01*
X145223586Y-87871806D01*
X145219090Y-87724088D01*
X145213627Y-87610363D01*
X145206879Y-87524731D01*
X145198531Y-87461291D01*
X145188263Y-87414141D01*
X145175759Y-87377382D01*
X145160702Y-87345113D01*
X145152709Y-87329923D01*
X145010428Y-87123210D01*
X144836643Y-86965304D01*
X144639829Y-86855983D01*
X144428465Y-86795026D01*
X144211028Y-86782212D01*
X143995995Y-86817320D01*
X143791844Y-86900128D01*
X143607052Y-87030416D01*
X143450097Y-87207962D01*
X143353486Y-87376863D01*
X143337443Y-87413695D01*
X143324051Y-87452618D01*
X143312994Y-87499642D01*
X143303955Y-87560777D01*
X143296618Y-87642031D01*
X143290666Y-87749415D01*
X143285784Y-87888938D01*
X143281656Y-88066609D01*
X143277965Y-88288438D01*
X143274394Y-88560434D01*
X143270629Y-88888608D01*
X143269750Y-88968250D01*
X143265356Y-89330438D01*
X143260696Y-89633720D01*
X143255596Y-89882689D01*
X143249884Y-90081939D01*
X143243383Y-90236062D01*
X143235920Y-90349653D01*
X143227321Y-90427305D01*
X143217411Y-90473611D01*
X143212162Y-90486011D01*
X143119092Y-90589799D01*
X142990169Y-90656101D01*
X142842986Y-90681716D01*
X142695139Y-90663444D01*
X142570387Y-90602737D01*
X142493719Y-90539052D01*
X142437730Y-90480044D01*
X142429281Y-90467800D01*
X142420748Y-90421966D01*
X142412590Y-90315782D01*
X142404909Y-90152400D01*
X142397807Y-89934970D01*
X142391385Y-89666643D01*
X142385745Y-89350567D01*
X142380991Y-88989895D01*
X142380750Y-88968250D01*
X142376956Y-88627940D01*
X142373499Y-88345057D01*
X142370035Y-88113532D01*
X142366219Y-87927296D01*
X142361706Y-87780280D01*
X142356152Y-87666415D01*
X142349213Y-87579631D01*
X142340544Y-87513860D01*
X142329801Y-87463032D01*
X142316639Y-87421078D01*
X142300713Y-87381929D01*
X142289253Y-87356298D01*
X142196358Y-87203670D01*
X142064710Y-87055464D01*
X141912718Y-86928912D01*
X141758792Y-86841244D01*
X141725347Y-86828493D01*
X141665891Y-86812007D01*
X141590790Y-86799335D01*
X141491680Y-86790032D01*
X141360199Y-86783649D01*
X141187983Y-86779738D01*
X140966669Y-86777853D01*
X140772060Y-86777499D01*
X140492493Y-86778455D01*
G37*
X140492493Y-86778455D02*
X140267608Y-86782416D01*
X140088603Y-86791026D01*
X139946675Y-86805927D01*
X139833021Y-86828763D01*
X139738840Y-86861176D01*
X139655327Y-86904809D01*
X139573680Y-86961305D01*
X139508011Y-87013405D01*
X139350031Y-87180554D01*
X139242832Y-87374409D01*
X139184996Y-87585516D01*
X139175103Y-87804425D01*
X139211734Y-88021684D01*
X139293470Y-88227841D01*
X139418890Y-88413445D01*
X139586577Y-88569043D01*
X139756552Y-88668500D01*
X139824375Y-88696982D01*
X139893351Y-88718323D01*
X139975222Y-88734102D01*
X140081729Y-88745896D01*
X140224616Y-88755284D01*
X140415624Y-88763844D01*
X140486124Y-88766565D01*
X140708181Y-88776169D01*
X140873463Y-88787157D01*
X140988693Y-88801389D01*
X141060594Y-88820725D01*
X141095888Y-88847025D01*
X141101299Y-88882150D01*
X141083550Y-88927960D01*
X141081742Y-88931376D01*
X141065461Y-88953904D01*
X141038123Y-88970635D01*
X140990544Y-88982714D01*
X140913544Y-88991289D01*
X140797942Y-88997504D01*
X140634555Y-89002505D01*
X140484227Y-89005954D01*
X140233287Y-89013990D01*
X140034942Y-89028276D01*
X139878350Y-89052220D01*
X139752668Y-89089228D01*
X139647056Y-89142708D01*
X139550671Y-89216065D01*
X139452671Y-89312706D01*
X139430035Y-89337193D01*
X139350981Y-89429035D01*
X139290097Y-89516692D01*
X139244938Y-89610350D01*
X139213058Y-89720196D01*
X139192012Y-89856416D01*
X139179354Y-90029195D01*
X139172640Y-90248721D01*
X139170327Y-90418984D01*
X139168876Y-90636455D01*
X139169843Y-90799779D01*
X139173861Y-90918287D01*
X139181564Y-91001308D01*
X139193586Y-91058170D01*
X139210558Y-91098203D01*
X139217178Y-91109042D01*
X139302207Y-91187889D01*
X139409843Y-91219160D01*
X139520686Y-91202897D01*
X139615335Y-91139144D01*
X139639434Y-91108110D01*
X139660067Y-91067739D01*
X139674300Y-91013155D01*
X139682967Y-90933760D01*
X139686900Y-90818956D01*
X139686931Y-90658145D01*
X139685268Y-90524837D01*
X139684556Y-90276886D01*
X139691704Y-90083672D01*
X139707907Y-89936783D01*
X139734362Y-89827808D01*
X139772265Y-89748335D01*
X139800941Y-89711376D01*
X139850712Y-89659082D01*
X139897253Y-89619865D01*
X139950521Y-89591555D01*
X140020469Y-89571985D01*
X140117055Y-89558987D01*
X140250233Y-89550394D01*
X140429959Y-89544037D01*
X140589080Y-89539750D01*
X141200752Y-89523875D01*
X141338314Y-89427215D01*
X141486087Y-89289535D01*
X141582431Y-89127899D01*
X141628756Y-88952707D01*
X141626478Y-88774359D01*
X141577007Y-88603254D01*
X141481758Y-88449791D01*
X141342144Y-88324370D01*
X141177450Y-88243277D01*
X141100804Y-88228656D01*
X140971054Y-88217210D01*
X140798541Y-88209558D01*
X140593610Y-88206317D01*
X140557830Y-88206250D01*
X140358790Y-88205302D01*
X140212005Y-88201747D01*
X140106246Y-88194518D01*
X140030286Y-88182548D01*
X139972897Y-88164769D01*
X139935505Y-88147096D01*
X139810103Y-88046053D01*
X139731571Y-87907039D01*
X139705925Y-87741137D01*
X139733317Y-87582918D01*
X139813137Y-87458100D01*
X139913913Y-87379352D01*
X139950432Y-87359776D01*
X139993246Y-87344800D01*
X140050871Y-87333814D01*
X140131828Y-87326208D01*
X140244633Y-87321371D01*
X140397806Y-87318693D01*
X140599865Y-87317564D01*
X140779145Y-87317368D01*
X141542914Y-87317250D01*
X141651364Y-87397262D01*
X141728032Y-87460947D01*
X141784021Y-87519955D01*
X141792470Y-87532199D01*
X141800970Y-87577991D01*
X141809095Y-87684194D01*
X141816745Y-87847716D01*
X141823821Y-88065471D01*
X141830226Y-88334367D01*
X141835858Y-88651316D01*
X141840621Y-89013228D01*
X141841000Y-89047625D01*
X141856875Y-90508125D01*
X141941025Y-90666875D01*
X142088418Y-90881372D01*
X142277543Y-91052636D01*
X142403891Y-91129224D01*
X142564232Y-91184306D01*
X142756512Y-91210115D01*
X142956577Y-91206451D01*
X143140274Y-91173111D01*
X143238000Y-91136154D01*
X143431744Y-91008493D01*
X143600622Y-90834471D01*
X143708873Y-90668704D01*
X143793625Y-90508125D01*
X143809500Y-89047625D01*
X143813276Y-88696722D01*
X143816784Y-88403620D01*
X143820742Y-88162624D01*
X143825870Y-87968042D01*
X143832886Y-87814182D01*
X143842508Y-87695350D01*
X143855456Y-87605853D01*
X143872448Y-87539999D01*
X143894202Y-87492096D01*
X143921437Y-87456449D01*
X143954872Y-87427367D01*
X143995226Y-87399157D01*
X144019681Y-87382601D01*
X144097112Y-87338719D01*
X144176734Y-87320691D01*
X144286756Y-87322699D01*
X144303598Y-87324031D01*
X144420863Y-87340593D01*
X144503089Y-87374193D01*
X144578519Y-87436577D01*
X144581621Y-87439664D01*
X144682625Y-87540617D01*
X144699792Y-88992621D01*
X144703995Y-89336177D01*
X144707955Y-89622239D01*
X144711973Y-89856813D01*
X144716350Y-90045901D01*
X144721386Y-90195510D01*
X144727384Y-90311642D01*
X144734644Y-90400302D01*
X144743467Y-90467494D01*
X144754154Y-90519224D01*
X144767007Y-90561494D01*
X144780146Y-90595156D01*
X144901828Y-90808443D01*
X145069909Y-90990992D01*
X145241349Y-91111632D01*
X145331907Y-91158259D01*
X145411090Y-91186597D01*
X145500318Y-91201095D01*
X145621009Y-91206202D01*
X145698625Y-91206625D01*
X145842845Y-91204492D01*
X145944991Y-91195150D01*
X146026431Y-91174184D01*
X146108530Y-91137180D01*
X146154410Y-91112445D01*
X146338482Y-90982625D01*
X146493694Y-90818743D01*
X146604646Y-90637846D01*
X146623021Y-90593676D01*
X146636490Y-90552210D01*
X146647860Y-90501575D01*
X146657404Y-90435840D01*
X146665396Y-90349073D01*
X146672111Y-90235341D01*
X146677822Y-90088713D01*
X146682804Y-89903257D01*
X146687330Y-89673041D01*
X146691675Y-89392132D01*
X146696111Y-89054600D01*
X146696843Y-88995339D01*
X146701132Y-88653884D01*
X146705066Y-88370235D01*
X146708950Y-88138702D01*
X146713087Y-87953595D01*
X146717783Y-87809224D01*
X146723340Y-87699898D01*
X146730063Y-87619927D01*
X146738257Y-87563622D01*
X146748225Y-87525291D01*
X146760271Y-87499245D01*
X146774700Y-87479793D01*
X146778051Y-87476026D01*
X146907612Y-87375161D01*
X147057673Y-87324844D01*
X147213828Y-87324203D01*
X147361669Y-87372363D01*
X147486793Y-87468452D01*
X147528173Y-87521487D01*
X147538980Y-87549177D01*
X147548287Y-87600645D01*
X147556287Y-87680849D01*
X147563175Y-87794747D01*
X147569145Y-87947297D01*
X147574388Y-88143458D01*
X147579100Y-88388188D01*
X147583474Y-88686445D01*
X147587702Y-89043187D01*
X147587750Y-89047625D01*
X147591546Y-89390243D01*
X147595032Y-89675312D01*
X147598531Y-89908779D01*
X147602367Y-90096593D01*
X147606862Y-90244702D01*
X147612341Y-90359051D01*
X147619126Y-90445591D01*
X147627541Y-90510268D01*
X147637909Y-90559030D01*
X147650553Y-90597824D01*
X147665797Y-90632599D01*
X147674906Y-90651164D01*
X147808386Y-90855201D01*
X147981743Y-91020964D01*
X148184248Y-91140933D01*
X148405169Y-91207590D01*
X148482016Y-91216733D01*
X148590438Y-91220992D01*
X148659569Y-91210008D01*
X148712967Y-91177629D01*
X148744413Y-91148224D01*
X148813546Y-91043014D01*
X148826451Y-90933297D01*
X148788200Y-90831129D01*
X148703869Y-90748561D01*
X148578531Y-90697648D01*
X148552741Y-90692888D01*
X148371908Y-90642121D01*
X148241631Y-90553665D01*
X148199237Y-90501000D01*
X148185924Y-90476185D01*
X148174732Y-90442047D01*
X148165394Y-90392883D01*
X148157643Y-90322990D01*
X148151212Y-90226664D01*
X148145835Y-90098203D01*
X148141242Y-89931904D01*
X148137168Y-89722064D01*
X148133346Y-89462981D01*
X148129507Y-89148950D01*
X148127500Y-88969723D01*
X148123659Y-88628430D01*
X148120089Y-88344623D01*
X148116473Y-88112291D01*
X148112492Y-87925421D01*
X148107829Y-87778002D01*
X148102163Y-87664023D01*
X148095177Y-87577471D01*
X148086552Y-87512337D01*
X148075970Y-87462607D01*
X148063112Y-87422271D01*
X148047660Y-87385317D01*
X148043017Y-87375172D01*
X147910307Y-87157785D01*
X147736930Y-86985523D01*
X147529481Y-86863039D01*
X147294559Y-86794988D01*
X147206296Y-86784837D01*
X146958326Y-86797316D01*
X146727641Y-86868022D01*
X146522758Y-86992384D01*
X146352196Y-87165830D01*
X146273262Y-87285500D01*
X146174875Y-87460125D01*
X146159000Y-88920625D01*
X146154423Y-89295385D01*
X146149426Y-89610335D01*
X146143876Y-89869165D01*
X146137643Y-90075564D01*
X146130592Y-90233222D01*
X146122593Y-90345827D01*
X146113511Y-90417069D01*
X146104154Y-90449137D01*
X146054519Y-90513675D01*
X145980825Y-90587616D01*
X145962797Y-90603302D01*
X145895838Y-90652808D01*
X145831713Y-90676226D01*
X145744763Y-90680092D01*
X145676766Y-90676169D01*
X145511819Y-90643538D01*
X145386875Y-90567911D01*
X145290898Y-90444625D01*
X145280876Y-90402811D01*
X145271892Y-90312299D01*
X145263863Y-90170742D01*
X145256709Y-89975796D01*
X145250349Y-89725114D01*
X145244701Y-89416350D01*
X145239684Y-89047159D01*
X145238250Y-88920625D01*
X145234448Y-88577926D01*
X145230948Y-88292824D01*
X145227433Y-88059418D01*
X145223586Y-87871806D01*
X145219090Y-87724088D01*
X145213627Y-87610363D01*
X145206879Y-87524731D01*
X145198531Y-87461291D01*
X145188263Y-87414141D01*
X145175759Y-87377382D01*
X145160702Y-87345113D01*
X145152709Y-87329923D01*
X145010428Y-87123210D01*
X144836643Y-86965304D01*
X144639829Y-86855983D01*
X144428465Y-86795026D01*
X144211028Y-86782212D01*
X143995995Y-86817320D01*
X143791844Y-86900128D01*
X143607052Y-87030416D01*
X143450097Y-87207962D01*
X143353486Y-87376863D01*
X143337443Y-87413695D01*
X143324051Y-87452618D01*
X143312994Y-87499642D01*
X143303955Y-87560777D01*
X143296618Y-87642031D01*
X143290666Y-87749415D01*
X143285784Y-87888938D01*
X143281656Y-88066609D01*
X143277965Y-88288438D01*
X143274394Y-88560434D01*
X143270629Y-88888608D01*
X143269750Y-88968250D01*
X143265356Y-89330438D01*
X143260696Y-89633720D01*
X143255596Y-89882689D01*
X143249884Y-90081939D01*
X143243383Y-90236062D01*
X143235920Y-90349653D01*
X143227321Y-90427305D01*
X143217411Y-90473611D01*
X143212162Y-90486011D01*
X143119092Y-90589799D01*
X142990169Y-90656101D01*
X142842986Y-90681716D01*
X142695139Y-90663444D01*
X142570387Y-90602737D01*
X142493719Y-90539052D01*
X142437730Y-90480044D01*
X142429281Y-90467800D01*
X142420748Y-90421966D01*
X142412590Y-90315782D01*
X142404909Y-90152400D01*
X142397807Y-89934970D01*
X142391385Y-89666643D01*
X142385745Y-89350567D01*
X142380991Y-88989895D01*
X142380750Y-88968250D01*
X142376956Y-88627940D01*
X142373499Y-88345057D01*
X142370035Y-88113532D01*
X142366219Y-87927296D01*
X142361706Y-87780280D01*
X142356152Y-87666415D01*
X142349213Y-87579631D01*
X142340544Y-87513860D01*
X142329801Y-87463032D01*
X142316639Y-87421078D01*
X142300713Y-87381929D01*
X142289253Y-87356298D01*
X142196358Y-87203670D01*
X142064710Y-87055464D01*
X141912718Y-86928912D01*
X141758792Y-86841244D01*
X141725347Y-86828493D01*
X141665891Y-86812007D01*
X141590790Y-86799335D01*
X141491680Y-86790032D01*
X141360199Y-86783649D01*
X141187983Y-86779738D01*
X140966669Y-86777853D01*
X140772060Y-86777499D01*
X140492493Y-86778455D01*
%TD*%
D12*
%TO.C,J4*%
X173500000Y-106500000D03*
%TD*%
%TO.C,J3*%
X117500000Y-79500000D03*
%TD*%
D13*
%TO.C,D6*%
X174120000Y-98000000D03*
D14*
X166500000Y-98000000D03*
%TD*%
D13*
%TO.C,D5*%
X174120000Y-95050000D03*
D14*
X166500000Y-95050000D03*
%TD*%
D13*
%TO.C,D4*%
X174120000Y-92000000D03*
D14*
X166500000Y-92000000D03*
%TD*%
D15*
%TO.C,R3*%
X162000000Y-95200000D03*
D16*
X162000000Y-82500000D03*
%TD*%
D15*
%TO.C,R2*%
X129760000Y-101500000D03*
D16*
X145000000Y-101500000D03*
%TD*%
D15*
%TO.C,R1*%
X137800000Y-81500000D03*
D16*
X150500000Y-81500000D03*
%TD*%
D17*
%TO.C,J2*%
X167920000Y-81500000D03*
D18*
X173000000Y-81500000D03*
%TD*%
D17*
%TO.C,J1*%
X119500000Y-93580000D03*
D18*
X119500000Y-88500000D03*
%TD*%
D13*
%TO.C,D3*%
X174120000Y-89000000D03*
D14*
X166500000Y-89000000D03*
%TD*%
D19*
%TO.C,D2*%
X148840000Y-99500000D03*
D20*
X159000000Y-99500000D03*
%TD*%
D19*
%TO.C,D1*%
X159160000Y-103500000D03*
D20*
X149000000Y-103500000D03*
%TD*%
D21*
%TO.C,C2*%
X167500000Y-105000000D03*
D14*
X164000000Y-105000000D03*
%TD*%
D16*
%TO.C,C1*%
X130000000Y-91500000D03*
X157500000Y-91500000D03*
%TD*%
M02*
