%TF.GenerationSoftware,KiCad,Pcbnew,(5.1.6)-1*%
%TF.CreationDate,2020-09-05T12:43:39-05:00*%
%TF.ProjectId,fuente-sin-transformador,6675656e-7465-42d7-9369-6e2d7472616e,rev?*%
%TF.SameCoordinates,Original*%
%TF.FileFunction,Legend,Top*%
%TF.FilePolarity,Positive*%
%FSLAX46Y46*%
G04 Gerber Fmt 4.6, Leading zero omitted, Abs format (unit mm)*
G04 Created by KiCad (PCBNEW (5.1.6)-1) date 2020-09-05 12:43:39*
%MOMM*%
%LPD*%
G01*
G04 APERTURE LIST*
%ADD10C,0.200000*%
%ADD11C,0.010000*%
%ADD12C,0.120000*%
%ADD13C,0.150000*%
G04 APERTURE END LIST*
D10*
X162238095Y-78642857D02*
X163761904Y-78642857D01*
X163000000Y-79404761D02*
X163000000Y-77880952D01*
X116102053Y-107678571D02*
X116289553Y-106178571D01*
X116655625Y-107250000D01*
X117289553Y-106178571D01*
X117102053Y-107678571D01*
X117798482Y-107250000D02*
X118512767Y-107250000D01*
X117602053Y-107678571D02*
X118289553Y-106178571D01*
X118602053Y-107678571D01*
X119477053Y-106964285D02*
X119387767Y-107678571D01*
X119075267Y-106178571D02*
X119477053Y-106964285D01*
X120075267Y-106178571D01*
X120387767Y-107678571D02*
X120575267Y-106178571D01*
X121244910Y-107678571D02*
X120709196Y-106821428D01*
X121432410Y-106178571D02*
X120468125Y-107035714D01*
X122360982Y-106178571D02*
X122646696Y-106178571D01*
X122780625Y-106250000D01*
X122905625Y-106392857D01*
X122941339Y-106678571D01*
X122878839Y-107178571D01*
X122771696Y-107464285D01*
X122610982Y-107607142D01*
X122459196Y-107678571D01*
X122173482Y-107678571D01*
X122039553Y-107607142D01*
X121914553Y-107464285D01*
X121878839Y-107178571D01*
X121941339Y-106678571D01*
X122048482Y-106392857D01*
X122209196Y-106250000D01*
X122360982Y-106178571D01*
X124173482Y-107678571D02*
X123459196Y-107678571D01*
X123646696Y-106178571D01*
X125530625Y-107678571D02*
X125119910Y-106964285D01*
X124673482Y-107678571D02*
X124860982Y-106178571D01*
X125432410Y-106178571D01*
X125566339Y-106250000D01*
X125628839Y-106321428D01*
X125682410Y-106464285D01*
X125655625Y-106678571D01*
X125566339Y-106821428D01*
X125485982Y-106892857D01*
X125334196Y-106964285D01*
X124762767Y-106964285D01*
X126271696Y-106892857D02*
X126771696Y-106892857D01*
X126887767Y-107678571D02*
X126173482Y-107678571D01*
X126360982Y-106178571D01*
X127075267Y-106178571D01*
X127905625Y-106964285D02*
X127816339Y-107678571D01*
X127503839Y-106178571D02*
X127905625Y-106964285D01*
X128503839Y-106178571D01*
X128834196Y-107535714D02*
X128896696Y-107607142D01*
X128816339Y-107678571D01*
X128753839Y-107607142D01*
X128834196Y-107535714D01*
X128816339Y-107678571D01*
X130405625Y-107535714D02*
X130325267Y-107607142D01*
X130102053Y-107678571D01*
X129959196Y-107678571D01*
X129753839Y-107607142D01*
X129628839Y-107464285D01*
X129575267Y-107321428D01*
X129539553Y-107035714D01*
X129566339Y-106821428D01*
X129673482Y-106535714D01*
X129762767Y-106392857D01*
X129923482Y-106250000D01*
X130146696Y-106178571D01*
X130289553Y-106178571D01*
X130494910Y-106250000D01*
X130557410Y-106321428D01*
X131503839Y-106178571D02*
X131789553Y-106178571D01*
X131923482Y-106250000D01*
X132048482Y-106392857D01*
X132084196Y-106678571D01*
X132021696Y-107178571D01*
X131914553Y-107464285D01*
X131753839Y-107607142D01*
X131602053Y-107678571D01*
X131316339Y-107678571D01*
X131182410Y-107607142D01*
X131057410Y-107464285D01*
X131021696Y-107178571D01*
X131084196Y-106678571D01*
X131191339Y-106392857D01*
X131352053Y-106250000D01*
X131503839Y-106178571D01*
X132602053Y-107678571D02*
X132789553Y-106178571D01*
X133155625Y-107250000D01*
X133789553Y-106178571D01*
X133602053Y-107678571D01*
D11*
%TO.C,G\u002A\u002A\u002A*%
G36*
X125806006Y-101222764D02*
G01*
X125985914Y-101225933D01*
X126129118Y-101232821D01*
X126242660Y-101244742D01*
X126333583Y-101263011D01*
X126408928Y-101288941D01*
X126475738Y-101323847D01*
X126541056Y-101369044D01*
X126593591Y-101410724D01*
X126719975Y-101544443D01*
X126805734Y-101699527D01*
X126852003Y-101868413D01*
X126859917Y-102043540D01*
X126830613Y-102217347D01*
X126765224Y-102382273D01*
X126664888Y-102530756D01*
X126530739Y-102655235D01*
X126394758Y-102734800D01*
X126340500Y-102757586D01*
X126285319Y-102774659D01*
X126219823Y-102787281D01*
X126134617Y-102796717D01*
X126020307Y-102804227D01*
X125867500Y-102811075D01*
X125811101Y-102813252D01*
X125633455Y-102820935D01*
X125501229Y-102829726D01*
X125409046Y-102841111D01*
X125351525Y-102856580D01*
X125323289Y-102877620D01*
X125318960Y-102905720D01*
X125333160Y-102942368D01*
X125334606Y-102945101D01*
X125347631Y-102963123D01*
X125369502Y-102976508D01*
X125407565Y-102986171D01*
X125469165Y-102993031D01*
X125561646Y-102998003D01*
X125692356Y-103002004D01*
X125812619Y-103004763D01*
X126013370Y-103011192D01*
X126172046Y-103022621D01*
X126297320Y-103041776D01*
X126397865Y-103071383D01*
X126482355Y-103114166D01*
X126559463Y-103172852D01*
X126637863Y-103250165D01*
X126655972Y-103269754D01*
X126719215Y-103343228D01*
X126767922Y-103413354D01*
X126804050Y-103488280D01*
X126829553Y-103576157D01*
X126846390Y-103685132D01*
X126856516Y-103823356D01*
X126861888Y-103998977D01*
X126863739Y-104135187D01*
X126864899Y-104309164D01*
X126864125Y-104439823D01*
X126860911Y-104534630D01*
X126854748Y-104601046D01*
X126845131Y-104646536D01*
X126831553Y-104678562D01*
X126826258Y-104687234D01*
X126758235Y-104750311D01*
X126672126Y-104775328D01*
X126583451Y-104762317D01*
X126507732Y-104711315D01*
X126488453Y-104686488D01*
X126471946Y-104654191D01*
X126460560Y-104610524D01*
X126453626Y-104547008D01*
X126450480Y-104455164D01*
X126450455Y-104326516D01*
X126451785Y-104219869D01*
X126452355Y-104021508D01*
X126446637Y-103866937D01*
X126433674Y-103749427D01*
X126412510Y-103662247D01*
X126382188Y-103598668D01*
X126359247Y-103569101D01*
X126319431Y-103527266D01*
X126282197Y-103495892D01*
X126239583Y-103473244D01*
X126183624Y-103457588D01*
X126106356Y-103447190D01*
X125999813Y-103440315D01*
X125856033Y-103435230D01*
X125728736Y-103431800D01*
X125239399Y-103419100D01*
X125129349Y-103341772D01*
X125011130Y-103231628D01*
X124934055Y-103102319D01*
X124896995Y-102962166D01*
X124898818Y-102819487D01*
X124938394Y-102682603D01*
X125014593Y-102559832D01*
X125126285Y-102459496D01*
X125258040Y-102394622D01*
X125319356Y-102382924D01*
X125423157Y-102373768D01*
X125561167Y-102367646D01*
X125725112Y-102365054D01*
X125753736Y-102365000D01*
X125912968Y-102364241D01*
X126030396Y-102361397D01*
X126115003Y-102355614D01*
X126175771Y-102346038D01*
X126221682Y-102331815D01*
X126251596Y-102317677D01*
X126351918Y-102236842D01*
X126414743Y-102125631D01*
X126435260Y-101992909D01*
X126413346Y-101866334D01*
X126349490Y-101766480D01*
X126268869Y-101703482D01*
X126239654Y-101687821D01*
X126205403Y-101675840D01*
X126159303Y-101667051D01*
X126094538Y-101660966D01*
X126004293Y-101657097D01*
X125881755Y-101654954D01*
X125720108Y-101654051D01*
X125576684Y-101653894D01*
X124965669Y-101653800D01*
X124878909Y-101717809D01*
X124817574Y-101768757D01*
X124772783Y-101815964D01*
X124766024Y-101825759D01*
X124759224Y-101862393D01*
X124752724Y-101947355D01*
X124746604Y-102078173D01*
X124740943Y-102252376D01*
X124735819Y-102467493D01*
X124731313Y-102721052D01*
X124727503Y-103010582D01*
X124727200Y-103038100D01*
X124714500Y-104206500D01*
X124647180Y-104333500D01*
X124529265Y-104505097D01*
X124377965Y-104642109D01*
X124276887Y-104703379D01*
X124148614Y-104747445D01*
X123994791Y-104768092D01*
X123834738Y-104765160D01*
X123687781Y-104738489D01*
X123609600Y-104708923D01*
X123454604Y-104606795D01*
X123319503Y-104467577D01*
X123232901Y-104334963D01*
X123165100Y-104206500D01*
X123152400Y-103038100D01*
X123149379Y-102757378D01*
X123146573Y-102522896D01*
X123143406Y-102330099D01*
X123139304Y-102174434D01*
X123133691Y-102051345D01*
X123125993Y-101956280D01*
X123115635Y-101884682D01*
X123102042Y-101831999D01*
X123084638Y-101793676D01*
X123062850Y-101765159D01*
X123036102Y-101741894D01*
X123003819Y-101719326D01*
X122984255Y-101706081D01*
X122922311Y-101670975D01*
X122858613Y-101656553D01*
X122770595Y-101658159D01*
X122757121Y-101659225D01*
X122663310Y-101672474D01*
X122597528Y-101699354D01*
X122537184Y-101749262D01*
X122534703Y-101751731D01*
X122453900Y-101832493D01*
X122440166Y-102994096D01*
X122436804Y-103268941D01*
X122433636Y-103497791D01*
X122430422Y-103685450D01*
X122426920Y-103836721D01*
X122422891Y-103956408D01*
X122418093Y-104049313D01*
X122412285Y-104120241D01*
X122405226Y-104173995D01*
X122396676Y-104215379D01*
X122386394Y-104249195D01*
X122375883Y-104276125D01*
X122278538Y-104446754D01*
X122144072Y-104592793D01*
X122006921Y-104689306D01*
X121934474Y-104726607D01*
X121871128Y-104749278D01*
X121799746Y-104760876D01*
X121703193Y-104764961D01*
X121641100Y-104765300D01*
X121525724Y-104763593D01*
X121444007Y-104756120D01*
X121378855Y-104739347D01*
X121313176Y-104709744D01*
X121276472Y-104689956D01*
X121129214Y-104586100D01*
X121005045Y-104454994D01*
X120916283Y-104310276D01*
X120901583Y-104274941D01*
X120890808Y-104241768D01*
X120881712Y-104201260D01*
X120874077Y-104148672D01*
X120867683Y-104079258D01*
X120862311Y-103988273D01*
X120857742Y-103870970D01*
X120853757Y-103722605D01*
X120850136Y-103538432D01*
X120846660Y-103313706D01*
X120843111Y-103043680D01*
X120842525Y-102996271D01*
X120839094Y-102723107D01*
X120835947Y-102496188D01*
X120832840Y-102310961D01*
X120829530Y-102162876D01*
X120825774Y-102047379D01*
X120821328Y-101959918D01*
X120815949Y-101895942D01*
X120809395Y-101850897D01*
X120801420Y-101820233D01*
X120791783Y-101799396D01*
X120780240Y-101783834D01*
X120777559Y-101780821D01*
X120673910Y-101700129D01*
X120553861Y-101659875D01*
X120428938Y-101659362D01*
X120310664Y-101697890D01*
X120210566Y-101774762D01*
X120177462Y-101817190D01*
X120168816Y-101839342D01*
X120161371Y-101880516D01*
X120154970Y-101944679D01*
X120149460Y-102035797D01*
X120144684Y-102157838D01*
X120140489Y-102314767D01*
X120136720Y-102510550D01*
X120133221Y-102749156D01*
X120129838Y-103034549D01*
X120129800Y-103038100D01*
X120126763Y-103312194D01*
X120123974Y-103540249D01*
X120121175Y-103727023D01*
X120118106Y-103877275D01*
X120114510Y-103995761D01*
X120110127Y-104087241D01*
X120104699Y-104156473D01*
X120097967Y-104208214D01*
X120089673Y-104247224D01*
X120079557Y-104278259D01*
X120067362Y-104306079D01*
X120060075Y-104320931D01*
X119953291Y-104484161D01*
X119814605Y-104616771D01*
X119652602Y-104712747D01*
X119475865Y-104766072D01*
X119414387Y-104773386D01*
X119327650Y-104776794D01*
X119272344Y-104768006D01*
X119229626Y-104742103D01*
X119204470Y-104718579D01*
X119149163Y-104634411D01*
X119138839Y-104546638D01*
X119169440Y-104464903D01*
X119236905Y-104398849D01*
X119337175Y-104358118D01*
X119357807Y-104354310D01*
X119502473Y-104313697D01*
X119606695Y-104242932D01*
X119640610Y-104200800D01*
X119651261Y-104180948D01*
X119660215Y-104153638D01*
X119667685Y-104114306D01*
X119673885Y-104058392D01*
X119679030Y-103981331D01*
X119683332Y-103878562D01*
X119687006Y-103745523D01*
X119690265Y-103577651D01*
X119693323Y-103370384D01*
X119696394Y-103119160D01*
X119698000Y-102975778D01*
X119701073Y-102702744D01*
X119703929Y-102475699D01*
X119706821Y-102289832D01*
X119710006Y-102140336D01*
X119713737Y-102022401D01*
X119718270Y-101931218D01*
X119723858Y-101861977D01*
X119730758Y-101809869D01*
X119739224Y-101770086D01*
X119749510Y-101737817D01*
X119761872Y-101708253D01*
X119765586Y-101700137D01*
X119871754Y-101526228D01*
X120010456Y-101388418D01*
X120176415Y-101290431D01*
X120364353Y-101235991D01*
X120434963Y-101227869D01*
X120633339Y-101237853D01*
X120817887Y-101294418D01*
X120981794Y-101393907D01*
X121118243Y-101532664D01*
X121181390Y-101628400D01*
X121260100Y-101768100D01*
X121272800Y-102936500D01*
X121276462Y-103236308D01*
X121280459Y-103488268D01*
X121284899Y-103695332D01*
X121289886Y-103860451D01*
X121295526Y-103986577D01*
X121301926Y-104076661D01*
X121309191Y-104133655D01*
X121316677Y-104159310D01*
X121356385Y-104210940D01*
X121415340Y-104270093D01*
X121429762Y-104282641D01*
X121483329Y-104322247D01*
X121534630Y-104340981D01*
X121604189Y-104344074D01*
X121658587Y-104340935D01*
X121790544Y-104314830D01*
X121890500Y-104254329D01*
X121967282Y-104155700D01*
X121975299Y-104122248D01*
X121982486Y-104049839D01*
X121988909Y-103936594D01*
X121994633Y-103780637D01*
X121999721Y-103580091D01*
X122004239Y-103333080D01*
X122008253Y-103037727D01*
X122009400Y-102936500D01*
X122012441Y-102662341D01*
X122015241Y-102434259D01*
X122018053Y-102247534D01*
X122021131Y-102097444D01*
X122024728Y-101979270D01*
X122029098Y-101888291D01*
X122034496Y-101819785D01*
X122041175Y-101769032D01*
X122049390Y-101731313D01*
X122059393Y-101701906D01*
X122071438Y-101676090D01*
X122077833Y-101663938D01*
X122191657Y-101498568D01*
X122330686Y-101372243D01*
X122488137Y-101284786D01*
X122657228Y-101236021D01*
X122831177Y-101225770D01*
X123003204Y-101253856D01*
X123166525Y-101320103D01*
X123314358Y-101424333D01*
X123439923Y-101566370D01*
X123517211Y-101701490D01*
X123530045Y-101730956D01*
X123540759Y-101762094D01*
X123549605Y-101799714D01*
X123556836Y-101848621D01*
X123562706Y-101913625D01*
X123567467Y-101999532D01*
X123571372Y-102111150D01*
X123574675Y-102253287D01*
X123577628Y-102430750D01*
X123580484Y-102648347D01*
X123583497Y-102910886D01*
X123584200Y-102974600D01*
X123587715Y-103264350D01*
X123591443Y-103506976D01*
X123595523Y-103706151D01*
X123600093Y-103865551D01*
X123605294Y-103988850D01*
X123611264Y-104079723D01*
X123618143Y-104141844D01*
X123626071Y-104178889D01*
X123630271Y-104188809D01*
X123704726Y-104271839D01*
X123807865Y-104324881D01*
X123925611Y-104345373D01*
X124043889Y-104330755D01*
X124143690Y-104282190D01*
X124205025Y-104231242D01*
X124249816Y-104184035D01*
X124256575Y-104174240D01*
X124263401Y-104137572D01*
X124269928Y-104052626D01*
X124276073Y-103921920D01*
X124281755Y-103747976D01*
X124286892Y-103533314D01*
X124291404Y-103280454D01*
X124295207Y-102991916D01*
X124295400Y-102974600D01*
X124298435Y-102702352D01*
X124301200Y-102476045D01*
X124303972Y-102290826D01*
X124307025Y-102141837D01*
X124310635Y-102024224D01*
X124315078Y-101933132D01*
X124320629Y-101863705D01*
X124327564Y-101811088D01*
X124336159Y-101770425D01*
X124346689Y-101736862D01*
X124359429Y-101705543D01*
X124368597Y-101685039D01*
X124442914Y-101562936D01*
X124548232Y-101444371D01*
X124669826Y-101343130D01*
X124792967Y-101272995D01*
X124819722Y-101262794D01*
X124867287Y-101249605D01*
X124927368Y-101239468D01*
X125006656Y-101232025D01*
X125111841Y-101226919D01*
X125249614Y-101223790D01*
X125426665Y-101222283D01*
X125582352Y-101221999D01*
X125806006Y-101222764D01*
G37*
X125806006Y-101222764D02*
X125985914Y-101225933D01*
X126129118Y-101232821D01*
X126242660Y-101244742D01*
X126333583Y-101263011D01*
X126408928Y-101288941D01*
X126475738Y-101323847D01*
X126541056Y-101369044D01*
X126593591Y-101410724D01*
X126719975Y-101544443D01*
X126805734Y-101699527D01*
X126852003Y-101868413D01*
X126859917Y-102043540D01*
X126830613Y-102217347D01*
X126765224Y-102382273D01*
X126664888Y-102530756D01*
X126530739Y-102655235D01*
X126394758Y-102734800D01*
X126340500Y-102757586D01*
X126285319Y-102774659D01*
X126219823Y-102787281D01*
X126134617Y-102796717D01*
X126020307Y-102804227D01*
X125867500Y-102811075D01*
X125811101Y-102813252D01*
X125633455Y-102820935D01*
X125501229Y-102829726D01*
X125409046Y-102841111D01*
X125351525Y-102856580D01*
X125323289Y-102877620D01*
X125318960Y-102905720D01*
X125333160Y-102942368D01*
X125334606Y-102945101D01*
X125347631Y-102963123D01*
X125369502Y-102976508D01*
X125407565Y-102986171D01*
X125469165Y-102993031D01*
X125561646Y-102998003D01*
X125692356Y-103002004D01*
X125812619Y-103004763D01*
X126013370Y-103011192D01*
X126172046Y-103022621D01*
X126297320Y-103041776D01*
X126397865Y-103071383D01*
X126482355Y-103114166D01*
X126559463Y-103172852D01*
X126637863Y-103250165D01*
X126655972Y-103269754D01*
X126719215Y-103343228D01*
X126767922Y-103413354D01*
X126804050Y-103488280D01*
X126829553Y-103576157D01*
X126846390Y-103685132D01*
X126856516Y-103823356D01*
X126861888Y-103998977D01*
X126863739Y-104135187D01*
X126864899Y-104309164D01*
X126864125Y-104439823D01*
X126860911Y-104534630D01*
X126854748Y-104601046D01*
X126845131Y-104646536D01*
X126831553Y-104678562D01*
X126826258Y-104687234D01*
X126758235Y-104750311D01*
X126672126Y-104775328D01*
X126583451Y-104762317D01*
X126507732Y-104711315D01*
X126488453Y-104686488D01*
X126471946Y-104654191D01*
X126460560Y-104610524D01*
X126453626Y-104547008D01*
X126450480Y-104455164D01*
X126450455Y-104326516D01*
X126451785Y-104219869D01*
X126452355Y-104021508D01*
X126446637Y-103866937D01*
X126433674Y-103749427D01*
X126412510Y-103662247D01*
X126382188Y-103598668D01*
X126359247Y-103569101D01*
X126319431Y-103527266D01*
X126282197Y-103495892D01*
X126239583Y-103473244D01*
X126183624Y-103457588D01*
X126106356Y-103447190D01*
X125999813Y-103440315D01*
X125856033Y-103435230D01*
X125728736Y-103431800D01*
X125239399Y-103419100D01*
X125129349Y-103341772D01*
X125011130Y-103231628D01*
X124934055Y-103102319D01*
X124896995Y-102962166D01*
X124898818Y-102819487D01*
X124938394Y-102682603D01*
X125014593Y-102559832D01*
X125126285Y-102459496D01*
X125258040Y-102394622D01*
X125319356Y-102382924D01*
X125423157Y-102373768D01*
X125561167Y-102367646D01*
X125725112Y-102365054D01*
X125753736Y-102365000D01*
X125912968Y-102364241D01*
X126030396Y-102361397D01*
X126115003Y-102355614D01*
X126175771Y-102346038D01*
X126221682Y-102331815D01*
X126251596Y-102317677D01*
X126351918Y-102236842D01*
X126414743Y-102125631D01*
X126435260Y-101992909D01*
X126413346Y-101866334D01*
X126349490Y-101766480D01*
X126268869Y-101703482D01*
X126239654Y-101687821D01*
X126205403Y-101675840D01*
X126159303Y-101667051D01*
X126094538Y-101660966D01*
X126004293Y-101657097D01*
X125881755Y-101654954D01*
X125720108Y-101654051D01*
X125576684Y-101653894D01*
X124965669Y-101653800D01*
X124878909Y-101717809D01*
X124817574Y-101768757D01*
X124772783Y-101815964D01*
X124766024Y-101825759D01*
X124759224Y-101862393D01*
X124752724Y-101947355D01*
X124746604Y-102078173D01*
X124740943Y-102252376D01*
X124735819Y-102467493D01*
X124731313Y-102721052D01*
X124727503Y-103010582D01*
X124727200Y-103038100D01*
X124714500Y-104206500D01*
X124647180Y-104333500D01*
X124529265Y-104505097D01*
X124377965Y-104642109D01*
X124276887Y-104703379D01*
X124148614Y-104747445D01*
X123994791Y-104768092D01*
X123834738Y-104765160D01*
X123687781Y-104738489D01*
X123609600Y-104708923D01*
X123454604Y-104606795D01*
X123319503Y-104467577D01*
X123232901Y-104334963D01*
X123165100Y-104206500D01*
X123152400Y-103038100D01*
X123149379Y-102757378D01*
X123146573Y-102522896D01*
X123143406Y-102330099D01*
X123139304Y-102174434D01*
X123133691Y-102051345D01*
X123125993Y-101956280D01*
X123115635Y-101884682D01*
X123102042Y-101831999D01*
X123084638Y-101793676D01*
X123062850Y-101765159D01*
X123036102Y-101741894D01*
X123003819Y-101719326D01*
X122984255Y-101706081D01*
X122922311Y-101670975D01*
X122858613Y-101656553D01*
X122770595Y-101658159D01*
X122757121Y-101659225D01*
X122663310Y-101672474D01*
X122597528Y-101699354D01*
X122537184Y-101749262D01*
X122534703Y-101751731D01*
X122453900Y-101832493D01*
X122440166Y-102994096D01*
X122436804Y-103268941D01*
X122433636Y-103497791D01*
X122430422Y-103685450D01*
X122426920Y-103836721D01*
X122422891Y-103956408D01*
X122418093Y-104049313D01*
X122412285Y-104120241D01*
X122405226Y-104173995D01*
X122396676Y-104215379D01*
X122386394Y-104249195D01*
X122375883Y-104276125D01*
X122278538Y-104446754D01*
X122144072Y-104592793D01*
X122006921Y-104689306D01*
X121934474Y-104726607D01*
X121871128Y-104749278D01*
X121799746Y-104760876D01*
X121703193Y-104764961D01*
X121641100Y-104765300D01*
X121525724Y-104763593D01*
X121444007Y-104756120D01*
X121378855Y-104739347D01*
X121313176Y-104709744D01*
X121276472Y-104689956D01*
X121129214Y-104586100D01*
X121005045Y-104454994D01*
X120916283Y-104310276D01*
X120901583Y-104274941D01*
X120890808Y-104241768D01*
X120881712Y-104201260D01*
X120874077Y-104148672D01*
X120867683Y-104079258D01*
X120862311Y-103988273D01*
X120857742Y-103870970D01*
X120853757Y-103722605D01*
X120850136Y-103538432D01*
X120846660Y-103313706D01*
X120843111Y-103043680D01*
X120842525Y-102996271D01*
X120839094Y-102723107D01*
X120835947Y-102496188D01*
X120832840Y-102310961D01*
X120829530Y-102162876D01*
X120825774Y-102047379D01*
X120821328Y-101959918D01*
X120815949Y-101895942D01*
X120809395Y-101850897D01*
X120801420Y-101820233D01*
X120791783Y-101799396D01*
X120780240Y-101783834D01*
X120777559Y-101780821D01*
X120673910Y-101700129D01*
X120553861Y-101659875D01*
X120428938Y-101659362D01*
X120310664Y-101697890D01*
X120210566Y-101774762D01*
X120177462Y-101817190D01*
X120168816Y-101839342D01*
X120161371Y-101880516D01*
X120154970Y-101944679D01*
X120149460Y-102035797D01*
X120144684Y-102157838D01*
X120140489Y-102314767D01*
X120136720Y-102510550D01*
X120133221Y-102749156D01*
X120129838Y-103034549D01*
X120129800Y-103038100D01*
X120126763Y-103312194D01*
X120123974Y-103540249D01*
X120121175Y-103727023D01*
X120118106Y-103877275D01*
X120114510Y-103995761D01*
X120110127Y-104087241D01*
X120104699Y-104156473D01*
X120097967Y-104208214D01*
X120089673Y-104247224D01*
X120079557Y-104278259D01*
X120067362Y-104306079D01*
X120060075Y-104320931D01*
X119953291Y-104484161D01*
X119814605Y-104616771D01*
X119652602Y-104712747D01*
X119475865Y-104766072D01*
X119414387Y-104773386D01*
X119327650Y-104776794D01*
X119272344Y-104768006D01*
X119229626Y-104742103D01*
X119204470Y-104718579D01*
X119149163Y-104634411D01*
X119138839Y-104546638D01*
X119169440Y-104464903D01*
X119236905Y-104398849D01*
X119337175Y-104358118D01*
X119357807Y-104354310D01*
X119502473Y-104313697D01*
X119606695Y-104242932D01*
X119640610Y-104200800D01*
X119651261Y-104180948D01*
X119660215Y-104153638D01*
X119667685Y-104114306D01*
X119673885Y-104058392D01*
X119679030Y-103981331D01*
X119683332Y-103878562D01*
X119687006Y-103745523D01*
X119690265Y-103577651D01*
X119693323Y-103370384D01*
X119696394Y-103119160D01*
X119698000Y-102975778D01*
X119701073Y-102702744D01*
X119703929Y-102475699D01*
X119706821Y-102289832D01*
X119710006Y-102140336D01*
X119713737Y-102022401D01*
X119718270Y-101931218D01*
X119723858Y-101861977D01*
X119730758Y-101809869D01*
X119739224Y-101770086D01*
X119749510Y-101737817D01*
X119761872Y-101708253D01*
X119765586Y-101700137D01*
X119871754Y-101526228D01*
X120010456Y-101388418D01*
X120176415Y-101290431D01*
X120364353Y-101235991D01*
X120434963Y-101227869D01*
X120633339Y-101237853D01*
X120817887Y-101294418D01*
X120981794Y-101393907D01*
X121118243Y-101532664D01*
X121181390Y-101628400D01*
X121260100Y-101768100D01*
X121272800Y-102936500D01*
X121276462Y-103236308D01*
X121280459Y-103488268D01*
X121284899Y-103695332D01*
X121289886Y-103860451D01*
X121295526Y-103986577D01*
X121301926Y-104076661D01*
X121309191Y-104133655D01*
X121316677Y-104159310D01*
X121356385Y-104210940D01*
X121415340Y-104270093D01*
X121429762Y-104282641D01*
X121483329Y-104322247D01*
X121534630Y-104340981D01*
X121604189Y-104344074D01*
X121658587Y-104340935D01*
X121790544Y-104314830D01*
X121890500Y-104254329D01*
X121967282Y-104155700D01*
X121975299Y-104122248D01*
X121982486Y-104049839D01*
X121988909Y-103936594D01*
X121994633Y-103780637D01*
X121999721Y-103580091D01*
X122004239Y-103333080D01*
X122008253Y-103037727D01*
X122009400Y-102936500D01*
X122012441Y-102662341D01*
X122015241Y-102434259D01*
X122018053Y-102247534D01*
X122021131Y-102097444D01*
X122024728Y-101979270D01*
X122029098Y-101888291D01*
X122034496Y-101819785D01*
X122041175Y-101769032D01*
X122049390Y-101731313D01*
X122059393Y-101701906D01*
X122071438Y-101676090D01*
X122077833Y-101663938D01*
X122191657Y-101498568D01*
X122330686Y-101372243D01*
X122488137Y-101284786D01*
X122657228Y-101236021D01*
X122831177Y-101225770D01*
X123003204Y-101253856D01*
X123166525Y-101320103D01*
X123314358Y-101424333D01*
X123439923Y-101566370D01*
X123517211Y-101701490D01*
X123530045Y-101730956D01*
X123540759Y-101762094D01*
X123549605Y-101799714D01*
X123556836Y-101848621D01*
X123562706Y-101913625D01*
X123567467Y-101999532D01*
X123571372Y-102111150D01*
X123574675Y-102253287D01*
X123577628Y-102430750D01*
X123580484Y-102648347D01*
X123583497Y-102910886D01*
X123584200Y-102974600D01*
X123587715Y-103264350D01*
X123591443Y-103506976D01*
X123595523Y-103706151D01*
X123600093Y-103865551D01*
X123605294Y-103988850D01*
X123611264Y-104079723D01*
X123618143Y-104141844D01*
X123626071Y-104178889D01*
X123630271Y-104188809D01*
X123704726Y-104271839D01*
X123807865Y-104324881D01*
X123925611Y-104345373D01*
X124043889Y-104330755D01*
X124143690Y-104282190D01*
X124205025Y-104231242D01*
X124249816Y-104184035D01*
X124256575Y-104174240D01*
X124263401Y-104137572D01*
X124269928Y-104052626D01*
X124276073Y-103921920D01*
X124281755Y-103747976D01*
X124286892Y-103533314D01*
X124291404Y-103280454D01*
X124295207Y-102991916D01*
X124295400Y-102974600D01*
X124298435Y-102702352D01*
X124301200Y-102476045D01*
X124303972Y-102290826D01*
X124307025Y-102141837D01*
X124310635Y-102024224D01*
X124315078Y-101933132D01*
X124320629Y-101863705D01*
X124327564Y-101811088D01*
X124336159Y-101770425D01*
X124346689Y-101736862D01*
X124359429Y-101705543D01*
X124368597Y-101685039D01*
X124442914Y-101562936D01*
X124548232Y-101444371D01*
X124669826Y-101343130D01*
X124792967Y-101272995D01*
X124819722Y-101262794D01*
X124867287Y-101249605D01*
X124927368Y-101239468D01*
X125006656Y-101232025D01*
X125111841Y-101226919D01*
X125249614Y-101223790D01*
X125426665Y-101222283D01*
X125582352Y-101221999D01*
X125806006Y-101222764D01*
D12*
%TO.C,D6*%
X168190000Y-96880000D02*
X168190000Y-99120000D01*
X168190000Y-99120000D02*
X172430000Y-99120000D01*
X172430000Y-99120000D02*
X172430000Y-96880000D01*
X172430000Y-96880000D02*
X168190000Y-96880000D01*
X167540000Y-98000000D02*
X168190000Y-98000000D01*
X173080000Y-98000000D02*
X172430000Y-98000000D01*
X168910000Y-96880000D02*
X168910000Y-99120000D01*
X169030000Y-96880000D02*
X169030000Y-99120000D01*
X168790000Y-96880000D02*
X168790000Y-99120000D01*
%TO.C,D5*%
X168190000Y-93930000D02*
X168190000Y-96170000D01*
X168190000Y-96170000D02*
X172430000Y-96170000D01*
X172430000Y-96170000D02*
X172430000Y-93930000D01*
X172430000Y-93930000D02*
X168190000Y-93930000D01*
X167540000Y-95050000D02*
X168190000Y-95050000D01*
X173080000Y-95050000D02*
X172430000Y-95050000D01*
X168910000Y-93930000D02*
X168910000Y-96170000D01*
X169030000Y-93930000D02*
X169030000Y-96170000D01*
X168790000Y-93930000D02*
X168790000Y-96170000D01*
%TO.C,D4*%
X168190000Y-90880000D02*
X168190000Y-93120000D01*
X168190000Y-93120000D02*
X172430000Y-93120000D01*
X172430000Y-93120000D02*
X172430000Y-90880000D01*
X172430000Y-90880000D02*
X168190000Y-90880000D01*
X167540000Y-92000000D02*
X168190000Y-92000000D01*
X173080000Y-92000000D02*
X172430000Y-92000000D01*
X168910000Y-90880000D02*
X168910000Y-93120000D01*
X169030000Y-90880000D02*
X169030000Y-93120000D01*
X168790000Y-90880000D02*
X168790000Y-93120000D01*
%TO.C,R3*%
X163440000Y-83780000D02*
X163920000Y-83780000D01*
X163920000Y-83780000D02*
X163920000Y-93920000D01*
X163920000Y-93920000D02*
X163440000Y-93920000D01*
X160560000Y-83780000D02*
X160080000Y-83780000D01*
X160080000Y-83780000D02*
X160080000Y-93920000D01*
X160080000Y-93920000D02*
X160560000Y-93920000D01*
%TO.C,R2*%
X131200000Y-101500000D02*
X131310000Y-101500000D01*
X143560000Y-101500000D02*
X143450000Y-101500000D01*
X131310000Y-103870000D02*
X143450000Y-103870000D01*
X131310000Y-99130000D02*
X131310000Y-103870000D01*
X143450000Y-99130000D02*
X131310000Y-99130000D01*
X143450000Y-103870000D02*
X143450000Y-99130000D01*
%TO.C,R1*%
X139080000Y-79580000D02*
X139080000Y-80060000D01*
X149220000Y-79580000D02*
X139080000Y-79580000D01*
X149220000Y-80060000D02*
X149220000Y-79580000D01*
X139080000Y-83420000D02*
X139080000Y-82940000D01*
X149220000Y-83420000D02*
X139080000Y-83420000D01*
X149220000Y-82940000D02*
X149220000Y-83420000D01*
%TO.C,J2*%
X175840000Y-76600000D02*
X175340000Y-76600000D01*
X175840000Y-77340000D02*
X175840000Y-76600000D01*
X169147000Y-80477000D02*
X169194000Y-80431000D01*
X166850000Y-82775000D02*
X166885000Y-82739000D01*
X168954000Y-80261000D02*
X168989000Y-80226000D01*
X166645000Y-82569000D02*
X166692000Y-82523000D01*
X165320000Y-86761000D02*
X165320000Y-76840000D01*
X175600000Y-86761000D02*
X175600000Y-76840000D01*
X175600000Y-76840000D02*
X165320000Y-76840000D01*
X175600000Y-86761000D02*
X165320000Y-86761000D01*
X175600000Y-83801000D02*
X165320000Y-83801000D01*
X175600000Y-78900000D02*
X165320000Y-78900000D01*
X175600000Y-77400000D02*
X165320000Y-77400000D01*
X169600000Y-81500000D02*
G75*
G03*
X169600000Y-81500000I-1680000J0D01*
G01*
X172971195Y-79819747D02*
G75*
G02*
X173684000Y-79965000I28805J-1680253D01*
G01*
X174535426Y-80816958D02*
G75*
G02*
X174535000Y-82184000I-1535426J-683042D01*
G01*
X173683042Y-83035426D02*
G75*
G02*
X172316000Y-83035000I-683042J1535426D01*
G01*
X171464574Y-82183042D02*
G75*
G02*
X171465000Y-80816000I1535426J683042D01*
G01*
X172316682Y-79965244D02*
G75*
G02*
X173000000Y-79820000I683318J-1534756D01*
G01*
%TO.C,J1*%
X114600000Y-85660000D02*
X114600000Y-86160000D01*
X115340000Y-85660000D02*
X114600000Y-85660000D01*
X118477000Y-92353000D02*
X118431000Y-92306000D01*
X120775000Y-94650000D02*
X120739000Y-94615000D01*
X118261000Y-92546000D02*
X118226000Y-92511000D01*
X120569000Y-94855000D02*
X120523000Y-94808000D01*
X124761000Y-96180000D02*
X114840000Y-96180000D01*
X124761000Y-85900000D02*
X114840000Y-85900000D01*
X114840000Y-85900000D02*
X114840000Y-96180000D01*
X124761000Y-85900000D02*
X124761000Y-96180000D01*
X121801000Y-85900000D02*
X121801000Y-96180000D01*
X116900000Y-85900000D02*
X116900000Y-96180000D01*
X115400000Y-85900000D02*
X115400000Y-96180000D01*
X121180000Y-93580000D02*
G75*
G03*
X121180000Y-93580000I-1680000J0D01*
G01*
X117819747Y-88528805D02*
G75*
G02*
X117965000Y-87816000I1680253J28805D01*
G01*
X118816958Y-86964574D02*
G75*
G02*
X120184000Y-86965000I683042J-1535426D01*
G01*
X121035426Y-87816958D02*
G75*
G02*
X121035000Y-89184000I-1535426J-683042D01*
G01*
X120183042Y-90035426D02*
G75*
G02*
X118816000Y-90035000I-683042J1535426D01*
G01*
X117965244Y-89183318D02*
G75*
G02*
X117820000Y-88500000I1534756J683318D01*
G01*
%TO.C,D3*%
X168790000Y-87880000D02*
X168790000Y-90120000D01*
X169030000Y-87880000D02*
X169030000Y-90120000D01*
X168910000Y-87880000D02*
X168910000Y-90120000D01*
X173080000Y-89000000D02*
X172430000Y-89000000D01*
X167540000Y-89000000D02*
X168190000Y-89000000D01*
X172430000Y-87880000D02*
X168190000Y-87880000D01*
X172430000Y-90120000D02*
X172430000Y-87880000D01*
X168190000Y-90120000D02*
X172430000Y-90120000D01*
X168190000Y-87880000D02*
X168190000Y-90120000D01*
%TO.C,D2*%
X155860000Y-100970000D02*
X155860000Y-98030000D01*
X155620000Y-100970000D02*
X155620000Y-98030000D01*
X155740000Y-100970000D02*
X155740000Y-98030000D01*
X150180000Y-99500000D02*
X151200000Y-99500000D01*
X157660000Y-99500000D02*
X156640000Y-99500000D01*
X151200000Y-100970000D02*
X156640000Y-100970000D01*
X151200000Y-98030000D02*
X151200000Y-100970000D01*
X156640000Y-98030000D02*
X151200000Y-98030000D01*
X156640000Y-100970000D02*
X156640000Y-98030000D01*
%TO.C,D1*%
X152140000Y-102030000D02*
X152140000Y-104970000D01*
X152380000Y-102030000D02*
X152380000Y-104970000D01*
X152260000Y-102030000D02*
X152260000Y-104970000D01*
X157820000Y-103500000D02*
X156800000Y-103500000D01*
X150340000Y-103500000D02*
X151360000Y-103500000D01*
X156800000Y-102030000D02*
X151360000Y-102030000D01*
X156800000Y-104970000D02*
X156800000Y-102030000D01*
X151360000Y-104970000D02*
X156800000Y-104970000D01*
X151360000Y-102030000D02*
X151360000Y-104970000D01*
%TO.C,C2*%
X161740302Y-102285000D02*
X161740302Y-103085000D01*
X161340302Y-102685000D02*
X162140302Y-102685000D01*
X169831000Y-104467000D02*
X169831000Y-105533000D01*
X169791000Y-104232000D02*
X169791000Y-105768000D01*
X169751000Y-104052000D02*
X169751000Y-105948000D01*
X169711000Y-103902000D02*
X169711000Y-106098000D01*
X169671000Y-103771000D02*
X169671000Y-106229000D01*
X169631000Y-103654000D02*
X169631000Y-106346000D01*
X169591000Y-103547000D02*
X169591000Y-106453000D01*
X169551000Y-103448000D02*
X169551000Y-106552000D01*
X169511000Y-103355000D02*
X169511000Y-106645000D01*
X169471000Y-103269000D02*
X169471000Y-106731000D01*
X169431000Y-103187000D02*
X169431000Y-106813000D01*
X169391000Y-103110000D02*
X169391000Y-106890000D01*
X169351000Y-103036000D02*
X169351000Y-106964000D01*
X169311000Y-102966000D02*
X169311000Y-107034000D01*
X169271000Y-102898000D02*
X169271000Y-107102000D01*
X169231000Y-102834000D02*
X169231000Y-107166000D01*
X169191000Y-102772000D02*
X169191000Y-107228000D01*
X169151000Y-102713000D02*
X169151000Y-107287000D01*
X169111000Y-102655000D02*
X169111000Y-107345000D01*
X169071000Y-102600000D02*
X169071000Y-107400000D01*
X169031000Y-102546000D02*
X169031000Y-107454000D01*
X168991000Y-102495000D02*
X168991000Y-107505000D01*
X168951000Y-102444000D02*
X168951000Y-107556000D01*
X168911000Y-102396000D02*
X168911000Y-107604000D01*
X168871000Y-102349000D02*
X168871000Y-107651000D01*
X168831000Y-102303000D02*
X168831000Y-107697000D01*
X168791000Y-102259000D02*
X168791000Y-107741000D01*
X168751000Y-102216000D02*
X168751000Y-107784000D01*
X168711000Y-102174000D02*
X168711000Y-107826000D01*
X168671000Y-102133000D02*
X168671000Y-107867000D01*
X168631000Y-102093000D02*
X168631000Y-107907000D01*
X168591000Y-102055000D02*
X168591000Y-107945000D01*
X168551000Y-102017000D02*
X168551000Y-107983000D01*
X168511000Y-106040000D02*
X168511000Y-108019000D01*
X168511000Y-101981000D02*
X168511000Y-103960000D01*
X168471000Y-106040000D02*
X168471000Y-108055000D01*
X168471000Y-101945000D02*
X168471000Y-103960000D01*
X168431000Y-106040000D02*
X168431000Y-108090000D01*
X168431000Y-101910000D02*
X168431000Y-103960000D01*
X168391000Y-106040000D02*
X168391000Y-108124000D01*
X168391000Y-101876000D02*
X168391000Y-103960000D01*
X168351000Y-106040000D02*
X168351000Y-108156000D01*
X168351000Y-101844000D02*
X168351000Y-103960000D01*
X168311000Y-106040000D02*
X168311000Y-108189000D01*
X168311000Y-101811000D02*
X168311000Y-103960000D01*
X168271000Y-106040000D02*
X168271000Y-108220000D01*
X168271000Y-101780000D02*
X168271000Y-103960000D01*
X168231000Y-106040000D02*
X168231000Y-108250000D01*
X168231000Y-101750000D02*
X168231000Y-103960000D01*
X168191000Y-106040000D02*
X168191000Y-108280000D01*
X168191000Y-101720000D02*
X168191000Y-103960000D01*
X168151000Y-106040000D02*
X168151000Y-108309000D01*
X168151000Y-101691000D02*
X168151000Y-103960000D01*
X168111000Y-106040000D02*
X168111000Y-108338000D01*
X168111000Y-101662000D02*
X168111000Y-103960000D01*
X168071000Y-106040000D02*
X168071000Y-108365000D01*
X168071000Y-101635000D02*
X168071000Y-103960000D01*
X168031000Y-106040000D02*
X168031000Y-108392000D01*
X168031000Y-101608000D02*
X168031000Y-103960000D01*
X167991000Y-106040000D02*
X167991000Y-108418000D01*
X167991000Y-101582000D02*
X167991000Y-103960000D01*
X167951000Y-106040000D02*
X167951000Y-108444000D01*
X167951000Y-101556000D02*
X167951000Y-103960000D01*
X167911000Y-106040000D02*
X167911000Y-108469000D01*
X167911000Y-101531000D02*
X167911000Y-103960000D01*
X167871000Y-106040000D02*
X167871000Y-108493000D01*
X167871000Y-101507000D02*
X167871000Y-103960000D01*
X167831000Y-106040000D02*
X167831000Y-108517000D01*
X167831000Y-101483000D02*
X167831000Y-103960000D01*
X167791000Y-106040000D02*
X167791000Y-108540000D01*
X167791000Y-101460000D02*
X167791000Y-103960000D01*
X167751000Y-106040000D02*
X167751000Y-108562000D01*
X167751000Y-101438000D02*
X167751000Y-103960000D01*
X167711000Y-106040000D02*
X167711000Y-108584000D01*
X167711000Y-101416000D02*
X167711000Y-103960000D01*
X167671000Y-106040000D02*
X167671000Y-108606000D01*
X167671000Y-101394000D02*
X167671000Y-103960000D01*
X167631000Y-106040000D02*
X167631000Y-108627000D01*
X167631000Y-101373000D02*
X167631000Y-103960000D01*
X167591000Y-106040000D02*
X167591000Y-108647000D01*
X167591000Y-101353000D02*
X167591000Y-103960000D01*
X167551000Y-106040000D02*
X167551000Y-108666000D01*
X167551000Y-101334000D02*
X167551000Y-103960000D01*
X167511000Y-106040000D02*
X167511000Y-108686000D01*
X167511000Y-101314000D02*
X167511000Y-103960000D01*
X167471000Y-106040000D02*
X167471000Y-108704000D01*
X167471000Y-101296000D02*
X167471000Y-103960000D01*
X167431000Y-106040000D02*
X167431000Y-108722000D01*
X167431000Y-101278000D02*
X167431000Y-103960000D01*
X167391000Y-106040000D02*
X167391000Y-108740000D01*
X167391000Y-101260000D02*
X167391000Y-103960000D01*
X167351000Y-106040000D02*
X167351000Y-108757000D01*
X167351000Y-101243000D02*
X167351000Y-103960000D01*
X167311000Y-106040000D02*
X167311000Y-108774000D01*
X167311000Y-101226000D02*
X167311000Y-103960000D01*
X167271000Y-106040000D02*
X167271000Y-108790000D01*
X167271000Y-101210000D02*
X167271000Y-103960000D01*
X167231000Y-106040000D02*
X167231000Y-108805000D01*
X167231000Y-101195000D02*
X167231000Y-103960000D01*
X167191000Y-106040000D02*
X167191000Y-108821000D01*
X167191000Y-101179000D02*
X167191000Y-103960000D01*
X167151000Y-106040000D02*
X167151000Y-108835000D01*
X167151000Y-101165000D02*
X167151000Y-103960000D01*
X167111000Y-106040000D02*
X167111000Y-108850000D01*
X167111000Y-101150000D02*
X167111000Y-103960000D01*
X167071000Y-106040000D02*
X167071000Y-108863000D01*
X167071000Y-101137000D02*
X167071000Y-103960000D01*
X167031000Y-106040000D02*
X167031000Y-108877000D01*
X167031000Y-101123000D02*
X167031000Y-103960000D01*
X166991000Y-106040000D02*
X166991000Y-108889000D01*
X166991000Y-101111000D02*
X166991000Y-103960000D01*
X166951000Y-106040000D02*
X166951000Y-108902000D01*
X166951000Y-101098000D02*
X166951000Y-103960000D01*
X166911000Y-106040000D02*
X166911000Y-108914000D01*
X166911000Y-101086000D02*
X166911000Y-103960000D01*
X166871000Y-106040000D02*
X166871000Y-108925000D01*
X166871000Y-101075000D02*
X166871000Y-103960000D01*
X166831000Y-106040000D02*
X166831000Y-108936000D01*
X166831000Y-101064000D02*
X166831000Y-103960000D01*
X166791000Y-106040000D02*
X166791000Y-108947000D01*
X166791000Y-101053000D02*
X166791000Y-103960000D01*
X166751000Y-106040000D02*
X166751000Y-108957000D01*
X166751000Y-101043000D02*
X166751000Y-103960000D01*
X166711000Y-106040000D02*
X166711000Y-108967000D01*
X166711000Y-101033000D02*
X166711000Y-103960000D01*
X166671000Y-106040000D02*
X166671000Y-108976000D01*
X166671000Y-101024000D02*
X166671000Y-103960000D01*
X166631000Y-106040000D02*
X166631000Y-108985000D01*
X166631000Y-101015000D02*
X166631000Y-103960000D01*
X166591000Y-106040000D02*
X166591000Y-108994000D01*
X166591000Y-101006000D02*
X166591000Y-103960000D01*
X166551000Y-106040000D02*
X166551000Y-109002000D01*
X166551000Y-100998000D02*
X166551000Y-103960000D01*
X166511000Y-106040000D02*
X166511000Y-109010000D01*
X166511000Y-100990000D02*
X166511000Y-103960000D01*
X166471000Y-106040000D02*
X166471000Y-109017000D01*
X166471000Y-100983000D02*
X166471000Y-103960000D01*
X166430000Y-100976000D02*
X166430000Y-109024000D01*
X166390000Y-100970000D02*
X166390000Y-109030000D01*
X166350000Y-100963000D02*
X166350000Y-109037000D01*
X166310000Y-100958000D02*
X166310000Y-109042000D01*
X166270000Y-100952000D02*
X166270000Y-109048000D01*
X166230000Y-100948000D02*
X166230000Y-109052000D01*
X166190000Y-100943000D02*
X166190000Y-109057000D01*
X166150000Y-100939000D02*
X166150000Y-109061000D01*
X166110000Y-100935000D02*
X166110000Y-109065000D01*
X166070000Y-100932000D02*
X166070000Y-109068000D01*
X166030000Y-100929000D02*
X166030000Y-109071000D01*
X165990000Y-100926000D02*
X165990000Y-109074000D01*
X165950000Y-100924000D02*
X165950000Y-109076000D01*
X165910000Y-100923000D02*
X165910000Y-109077000D01*
X165870000Y-100921000D02*
X165870000Y-109079000D01*
X165830000Y-100920000D02*
X165830000Y-109080000D01*
X165790000Y-100920000D02*
X165790000Y-109080000D01*
X165750000Y-100920000D02*
X165750000Y-109080000D01*
X169870000Y-105000000D02*
G75*
G03*
X169870000Y-105000000I-4120000J0D01*
G01*
%TO.C,C1*%
X129130000Y-90315000D02*
X129130000Y-85880000D01*
X129130000Y-97120000D02*
X129130000Y-92685000D01*
X158370000Y-90315000D02*
X158370000Y-85880000D01*
X158370000Y-97120000D02*
X158370000Y-92685000D01*
X158370000Y-85880000D02*
X129130000Y-85880000D01*
X158370000Y-97120000D02*
X129130000Y-97120000D01*
%TO.C,D6*%
D13*
X169571904Y-98452380D02*
X169571904Y-97452380D01*
X169810000Y-97452380D01*
X169952857Y-97500000D01*
X170048095Y-97595238D01*
X170095714Y-97690476D01*
X170143333Y-97880952D01*
X170143333Y-98023809D01*
X170095714Y-98214285D01*
X170048095Y-98309523D01*
X169952857Y-98404761D01*
X169810000Y-98452380D01*
X169571904Y-98452380D01*
X171000476Y-97452380D02*
X170810000Y-97452380D01*
X170714761Y-97500000D01*
X170667142Y-97547619D01*
X170571904Y-97690476D01*
X170524285Y-97880952D01*
X170524285Y-98261904D01*
X170571904Y-98357142D01*
X170619523Y-98404761D01*
X170714761Y-98452380D01*
X170905238Y-98452380D01*
X171000476Y-98404761D01*
X171048095Y-98357142D01*
X171095714Y-98261904D01*
X171095714Y-98023809D01*
X171048095Y-97928571D01*
X171000476Y-97880952D01*
X170905238Y-97833333D01*
X170714761Y-97833333D01*
X170619523Y-97880952D01*
X170571904Y-97928571D01*
X170524285Y-98023809D01*
X166238095Y-96652380D02*
X166238095Y-95652380D01*
X166809523Y-96652380D02*
X166380952Y-96080952D01*
X166809523Y-95652380D02*
X166238095Y-96223809D01*
%TO.C,D5*%
X169761904Y-95452380D02*
X169761904Y-94452380D01*
X170000000Y-94452380D01*
X170142857Y-94500000D01*
X170238095Y-94595238D01*
X170285714Y-94690476D01*
X170333333Y-94880952D01*
X170333333Y-95023809D01*
X170285714Y-95214285D01*
X170238095Y-95309523D01*
X170142857Y-95404761D01*
X170000000Y-95452380D01*
X169761904Y-95452380D01*
X171238095Y-94452380D02*
X170761904Y-94452380D01*
X170714285Y-94928571D01*
X170761904Y-94880952D01*
X170857142Y-94833333D01*
X171095238Y-94833333D01*
X171190476Y-94880952D01*
X171238095Y-94928571D01*
X171285714Y-95023809D01*
X171285714Y-95261904D01*
X171238095Y-95357142D01*
X171190476Y-95404761D01*
X171095238Y-95452380D01*
X170857142Y-95452380D01*
X170761904Y-95404761D01*
X170714285Y-95357142D01*
X166238095Y-93702380D02*
X166238095Y-92702380D01*
X166809523Y-93702380D02*
X166380952Y-93130952D01*
X166809523Y-92702380D02*
X166238095Y-93273809D01*
%TO.C,D4*%
X169761904Y-92452380D02*
X169761904Y-91452380D01*
X170000000Y-91452380D01*
X170142857Y-91500000D01*
X170238095Y-91595238D01*
X170285714Y-91690476D01*
X170333333Y-91880952D01*
X170333333Y-92023809D01*
X170285714Y-92214285D01*
X170238095Y-92309523D01*
X170142857Y-92404761D01*
X170000000Y-92452380D01*
X169761904Y-92452380D01*
X171190476Y-91785714D02*
X171190476Y-92452380D01*
X170952380Y-91404761D02*
X170714285Y-92119047D01*
X171333333Y-92119047D01*
X166238095Y-90652380D02*
X166238095Y-89652380D01*
X166809523Y-90652380D02*
X166380952Y-90080952D01*
X166809523Y-89652380D02*
X166238095Y-90223809D01*
%TO.C,R3*%
X165372380Y-89016666D02*
X164896190Y-89350000D01*
X165372380Y-89588095D02*
X164372380Y-89588095D01*
X164372380Y-89207142D01*
X164420000Y-89111904D01*
X164467619Y-89064285D01*
X164562857Y-89016666D01*
X164705714Y-89016666D01*
X164800952Y-89064285D01*
X164848571Y-89111904D01*
X164896190Y-89207142D01*
X164896190Y-89588095D01*
X164372380Y-88683333D02*
X164372380Y-88064285D01*
X164753333Y-88397619D01*
X164753333Y-88254761D01*
X164800952Y-88159523D01*
X164848571Y-88111904D01*
X164943809Y-88064285D01*
X165181904Y-88064285D01*
X165277142Y-88111904D01*
X165324761Y-88159523D01*
X165372380Y-88254761D01*
X165372380Y-88540476D01*
X165324761Y-88635714D01*
X165277142Y-88683333D01*
%TO.C,R2*%
X137213333Y-105322380D02*
X136880000Y-104846190D01*
X136641904Y-105322380D02*
X136641904Y-104322380D01*
X137022857Y-104322380D01*
X137118095Y-104370000D01*
X137165714Y-104417619D01*
X137213333Y-104512857D01*
X137213333Y-104655714D01*
X137165714Y-104750952D01*
X137118095Y-104798571D01*
X137022857Y-104846190D01*
X136641904Y-104846190D01*
X137594285Y-104417619D02*
X137641904Y-104370000D01*
X137737142Y-104322380D01*
X137975238Y-104322380D01*
X138070476Y-104370000D01*
X138118095Y-104417619D01*
X138165714Y-104512857D01*
X138165714Y-104608095D01*
X138118095Y-104750952D01*
X137546666Y-105322380D01*
X138165714Y-105322380D01*
%TO.C,R1*%
X143983333Y-84872380D02*
X143650000Y-84396190D01*
X143411904Y-84872380D02*
X143411904Y-83872380D01*
X143792857Y-83872380D01*
X143888095Y-83920000D01*
X143935714Y-83967619D01*
X143983333Y-84062857D01*
X143983333Y-84205714D01*
X143935714Y-84300952D01*
X143888095Y-84348571D01*
X143792857Y-84396190D01*
X143411904Y-84396190D01*
X144935714Y-84872380D02*
X144364285Y-84872380D01*
X144650000Y-84872380D02*
X144650000Y-83872380D01*
X144554761Y-84015238D01*
X144459523Y-84110476D01*
X144364285Y-84158095D01*
%TO.C,J2*%
X170126666Y-84952380D02*
X170126666Y-85666666D01*
X170079047Y-85809523D01*
X169983809Y-85904761D01*
X169840952Y-85952380D01*
X169745714Y-85952380D01*
X170555238Y-85047619D02*
X170602857Y-85000000D01*
X170698095Y-84952380D01*
X170936190Y-84952380D01*
X171031428Y-85000000D01*
X171079047Y-85047619D01*
X171126666Y-85142857D01*
X171126666Y-85238095D01*
X171079047Y-85380952D01*
X170507619Y-85952380D01*
X171126666Y-85952380D01*
%TO.C,J1*%
X125212380Y-91373333D02*
X125926666Y-91373333D01*
X126069523Y-91420952D01*
X126164761Y-91516190D01*
X126212380Y-91659047D01*
X126212380Y-91754285D01*
X126212380Y-90373333D02*
X126212380Y-90944761D01*
X126212380Y-90659047D02*
X125212380Y-90659047D01*
X125355238Y-90754285D01*
X125450476Y-90849523D01*
X125498095Y-90944761D01*
%TO.C,D3*%
X169761904Y-89452380D02*
X169761904Y-88452380D01*
X170000000Y-88452380D01*
X170142857Y-88500000D01*
X170238095Y-88595238D01*
X170285714Y-88690476D01*
X170333333Y-88880952D01*
X170333333Y-89023809D01*
X170285714Y-89214285D01*
X170238095Y-89309523D01*
X170142857Y-89404761D01*
X170000000Y-89452380D01*
X169761904Y-89452380D01*
X170666666Y-88452380D02*
X171285714Y-88452380D01*
X170952380Y-88833333D01*
X171095238Y-88833333D01*
X171190476Y-88880952D01*
X171238095Y-88928571D01*
X171285714Y-89023809D01*
X171285714Y-89261904D01*
X171238095Y-89357142D01*
X171190476Y-89404761D01*
X171095238Y-89452380D01*
X170809523Y-89452380D01*
X170714285Y-89404761D01*
X170666666Y-89357142D01*
X166238095Y-87652380D02*
X166238095Y-86652380D01*
X166809523Y-87652380D02*
X166380952Y-87080952D01*
X166809523Y-86652380D02*
X166238095Y-87223809D01*
%TO.C,D2*%
X153181904Y-102422380D02*
X153181904Y-101422380D01*
X153420000Y-101422380D01*
X153562857Y-101470000D01*
X153658095Y-101565238D01*
X153705714Y-101660476D01*
X153753333Y-101850952D01*
X153753333Y-101993809D01*
X153705714Y-102184285D01*
X153658095Y-102279523D01*
X153562857Y-102374761D01*
X153420000Y-102422380D01*
X153181904Y-102422380D01*
X154134285Y-101517619D02*
X154181904Y-101470000D01*
X154277142Y-101422380D01*
X154515238Y-101422380D01*
X154610476Y-101470000D01*
X154658095Y-101517619D01*
X154705714Y-101612857D01*
X154705714Y-101708095D01*
X154658095Y-101850952D01*
X154086666Y-102422380D01*
X154705714Y-102422380D01*
X158738095Y-102052380D02*
X158738095Y-101052380D01*
X159309523Y-102052380D02*
X158880952Y-101480952D01*
X159309523Y-101052380D02*
X158738095Y-101623809D01*
%TO.C,D1*%
X153341904Y-101482380D02*
X153341904Y-100482380D01*
X153580000Y-100482380D01*
X153722857Y-100530000D01*
X153818095Y-100625238D01*
X153865714Y-100720476D01*
X153913333Y-100910952D01*
X153913333Y-101053809D01*
X153865714Y-101244285D01*
X153818095Y-101339523D01*
X153722857Y-101434761D01*
X153580000Y-101482380D01*
X153341904Y-101482380D01*
X154865714Y-101482380D02*
X154294285Y-101482380D01*
X154580000Y-101482380D02*
X154580000Y-100482380D01*
X154484761Y-100625238D01*
X154389523Y-100720476D01*
X154294285Y-100768095D01*
X148738095Y-101852380D02*
X148738095Y-100852380D01*
X149309523Y-101852380D02*
X148880952Y-101280952D01*
X149309523Y-100852380D02*
X148738095Y-101423809D01*
%TO.C,C2*%
X165583333Y-100107142D02*
X165535714Y-100154761D01*
X165392857Y-100202380D01*
X165297619Y-100202380D01*
X165154761Y-100154761D01*
X165059523Y-100059523D01*
X165011904Y-99964285D01*
X164964285Y-99773809D01*
X164964285Y-99630952D01*
X165011904Y-99440476D01*
X165059523Y-99345238D01*
X165154761Y-99250000D01*
X165297619Y-99202380D01*
X165392857Y-99202380D01*
X165535714Y-99250000D01*
X165583333Y-99297619D01*
X165964285Y-99297619D02*
X166011904Y-99250000D01*
X166107142Y-99202380D01*
X166345238Y-99202380D01*
X166440476Y-99250000D01*
X166488095Y-99297619D01*
X166535714Y-99392857D01*
X166535714Y-99488095D01*
X166488095Y-99630952D01*
X165916666Y-100202380D01*
X166535714Y-100202380D01*
%TO.C,C1*%
X143583333Y-98607142D02*
X143535714Y-98654761D01*
X143392857Y-98702380D01*
X143297619Y-98702380D01*
X143154761Y-98654761D01*
X143059523Y-98559523D01*
X143011904Y-98464285D01*
X142964285Y-98273809D01*
X142964285Y-98130952D01*
X143011904Y-97940476D01*
X143059523Y-97845238D01*
X143154761Y-97750000D01*
X143297619Y-97702380D01*
X143392857Y-97702380D01*
X143535714Y-97750000D01*
X143583333Y-97797619D01*
X144535714Y-98702380D02*
X143964285Y-98702380D01*
X144250000Y-98702380D02*
X144250000Y-97702380D01*
X144154761Y-97845238D01*
X144059523Y-97940476D01*
X143964285Y-97988095D01*
%TD*%
M02*
