M48
; DRILL file {KiCad (5.1.6)-1} date 09/05/20 12:43:43
; FORMAT={-:-/ absolute / inch / decimal}
; #@! TF.CreationDate,2020-09-05T12:43:43-05:00
; #@! TF.GenerationSoftware,Kicad,Pcbnew,(5.1.6)-1
; #@! TF.FileFunction,Plated,1,2,PTH
FMAT,2
INCH
T1C0.0315
T2C0.0433
T3C0.0472
T4C0.0512
T5C0.1260
%
G90
G05
T1
X6.4567Y-4.1339
X6.5551Y-3.622
X6.8551Y-3.622
X6.5551Y-3.7421
X6.8551Y-3.7421
X6.5551Y-3.5039
X6.8551Y-3.5039
X6.5551Y-3.8583
X6.8551Y-3.8583
X6.5945Y-4.1339
T2
X5.8661Y-4.0748
X6.2661Y-4.0748
X5.8598Y-3.9173
X6.2598Y-3.9173
T3
X5.1181Y-3.6024
X6.2008Y-3.6024
X5.4252Y-3.2087
X5.9252Y-3.2087
X6.378Y-3.248
X6.378Y-3.748
X5.1087Y-3.9961
X5.7087Y-3.9961
T4
X4.7047Y-3.4843
X4.7047Y-3.6843
X6.611Y-3.2087
X6.811Y-3.2087
T5
X4.626Y-3.1299
X6.8307Y-4.1929
T0
M30
